<svg xmlns="http://www.w3.org/2000/svg" viewBox="0 0 64 64" width="64" height="64">
  <!-- Fundo circular azul -->
  <circle cx="32" cy="32" r="30" fill="#007bff" stroke="#0056b3" stroke-width="2"/>
  
  <!-- Ícone de gráfico/medição -->
  <g fill="white">
    <!-- Linha de medição -->
    <rect x="12" y="40" width="40" height="3" rx="1.5"/>
    
    <!-- Pontos de medição -->
    <circle cx="16" cy="42" r="2"/>
    <circle cx="24" cy="38" r="2"/>
    <circle cx="32" cy="35" r="2"/>
    <circle cx="40" cy="32" r="2"/>
    <circle cx="48" cy="30" r="2"/>
    
    <!-- Linha conectando os pontos -->
    <path d="M16,42 L24,38 L32,35 L40,32 L48,30" stroke="white" stroke-width="2" fill="none"/>
    
    <!-- Símbolo "M" estilizado -->
    <path d="M20,20 L20,45 L24,45 L24,28 L28,35 L32,28 L36,35 L40,28 L40,45 L44,45 L44,20 L38,20 L32,30 L26,20 Z" fill="white"/>
  </g>
  
  <!-- Borda externa -->
  <circle cx="32" cy="32" r="31" fill="none" stroke="#0056b3" stroke-width="1"/>
</svg>
